# xmcd
#
# Track frame offsets:
#	150
#	18302
#	33006
#	54838
#	77867
#	104195
#	121673
#	142752
#	169080
#	188261
#	206940
#	230216
#
# Disc length: 3267 seconds
#
# Revision: 0
# Processed by: cddbd v1.5.1PL0 Copyright (c) Steve Scherf et al.
# Submitted via: dBpowerAMP V4.0
#
DISCID=960cc10c
DTITLE=Renaissance - Ekatturer Renaissance
DYEAR=2004
DGENRE=Power Ballad
TTITLE0=Banglar Hindu
TTITLE1=Baandh Bhenge Daao
TTITLE2=Bangladesh (George Harrison)
TTITLE3=Bangladesh (Joan Baez)
TTITLE4=Bhebo Na Go Ma
TTITLE5=Bicharpoti Tomar Bichar
TTITLE6=Hazar Bochor Pore
TTITLE7=Joy Bangla Banglar Joy
TTITLE8=Karar Oi Louho Kopat
TTITLE9=Nongor Tolo Tolo
TTITLE10=Purbo Digonte Shurjo Utheche
TTITLE11=Shono Ekti Muziborer
EXTD=
EXTT0=
EXTT1=
EXTT2=
EXTT3=
EXTT4=
EXTT5=
EXTT6=
EXTT7=
EXTT8=
EXTT9=
EXTT10=
EXTT11=
PLAYORDER=
